<svg width="15" height="3" viewBox="0 0 15 3" fill="none" xmlns="http://www.w3.org/2000/svg">
<path d="M6.41683 1.28333C6.41683 1.66993 6.73023 1.98333 7.11683 1.98333C7.50343 1.98333 7.81683 1.66993 7.81683 1.28333C7.81683 0.896729 7.50343 0.583328 7.11683 0.583328C6.73023 0.583328 6.41683 0.896729 6.41683 1.28333Z" fill="white" stroke="white" stroke-width="1.16667" stroke-linecap="round" stroke-linejoin="round"/>
<path d="M12.2498 1.28333C12.2498 1.66993 12.5632 1.98333 12.9498 1.98333C13.3364 1.98333 13.6498 1.66993 13.6498 1.28333C13.6498 0.896729 13.3364 0.583328 12.9498 0.583328C12.5632 0.583328 12.2498 0.896729 12.2498 1.28333Z" fill="white" stroke="white" stroke-width="1.16667" stroke-linecap="round" stroke-linejoin="round"/>
<path d="M0.583337 1.28333C0.583337 1.66993 0.896738 1.98333 1.28334 1.98333C1.66994 1.98333 1.98334 1.66993 1.98334 1.28333C1.98334 0.896729 1.66994 0.583328 1.28334 0.583328C0.896738 0.583328 0.583337 0.896729 0.583337 1.28333Z" fill="white" stroke="white" stroke-width="1.16667" stroke-linecap="round" stroke-linejoin="round"/>
</svg>
